name C:\Users\tom_v\MusculoskeletalSpecialization_revisited\Results\Case_11\motion.mot
version=1
nRows=4
nColumns=124
inDegrees=yes
endheader
time	pelvis_tilt	pelvis_list	pelvis_rotation	pelvis_tx	pelvis_ty	pelvis_tz	hip_flexion_r	hip_adduction_r	hip_rotation_r	knee_angle_r	ankle_angle_r	subtalar_angle_r	mtp_angle_r	hip_flexion_l	hip_adduction_l	hip_rotation_l	knee_angle_l	ankle_angle_l	subtalar_angle_l	mtp_angle_l	lumbar_extension	lumbar_bending	lumbar_rotation	arm_flex_r	arm_add_r	arm_rot_r	elbow_flex_r	arm_flex_l	arm_add_l	arm_rot_l	elbow_flex_l	glut_med1_r	glut_med2_r	glut_med3_r	glut_min1_r	glut_min2_r	glut_min3_r	semimem_r	semiten_r	bifemlh_r	bifemsh_r	sar_r	add_long_r	add_brev_r	add_mag1_r	add_mag2_r	add_mag3_r	tfl_r	pect_r	grac_r	glut_max1_r	glut_max2_r	glut_max3_r	iliacus_r	psoas_r	quad_fem_r	gem_r	peri_r	rect_fem_r	vas_med_r	vas_int_r	vas_lat_r	med_gas_r	lat_gas_r	soleus_r	tib_post_r	flex_dig_r	flex_hal_r	tib_ant_r	per_brev_r	per_long_r	per_tert_r	ext_dig_r	ext_hal_r	glut_med1_l	glut_med2_l	glut_med3_l	glut_min1_l	glut_min2_l	glut_min3_l	semimem_l	semiten_l	bifemlh_l	bifemsh_l	sar_l	add_long_l	add_brev_l	add_mag1_l	add_mag2_l	add_mag3_l	tfl_l	pect_l	grac_l	glut_max1_l	glut_max2_l	glut_max3_l	iliacus_l	psoas_l	quad_fem_l	gem_l	peri_l	rect_fem_l	vas_med_l	vas_int_l	vas_lat_l	med_gas_l	lat_gas_l	soleus_l	tib_post_l	flex_dig_l	flex_hal_l	tib_ant_l	per_brev_l	per_long_l	per_tert_l	ext_dig_l	ext_hal_l	ercspn_r	ercspn_l	intobl_r	intobl_l	extobl_r	extobl_l	
          0.35711438	        -11.10637436	        -13.26502476	         21.94840978	          2.90716713	          0.93445475	         -0.02666295	         56.39814003	         -4.12864386	         -8.93685707	        -60.12842631	         14.91581988	          2.89947536	          3.74587078	          6.50108511	        -16.13719580	          9.32085646	        -39.41851007	        -16.23075478	        -11.80126748	         -2.51429734	          0.01847394	         11.14666720	        -25.51659478	        -69.97688668	        -42.07441469	        -12.97036322	          0.18233951	         49.98740075	          4.99672717	          7.85822374	        114.48192191	          0.28909166	          0.29024025	          0.29895480	          0.26654537	          0.30907162	          0.33845731	          0.82359359	          0.10214156	          0.11779214	          0.99777680	          0.95404571	          0.90231474	          0.35712627	          0.54234318	          0.50261379	          0.39980055	          0.84746478	          0.99471427	          0.93966683	          0.88641354	          0.29464636	          0.12485913	          0.98844678	          0.89529764	          0.20643295	          0.20303979	          0.19854230	          0.99122420	          0.83440292	          0.99316217	          0.38227030	          0.83189520	          0.80266012	          0.79468921	          0.66777621	          0.62715727	          0.68267457	          0.45264846	          0.65748415	          0.64740923	          0.46380732	          0.50034532	          0.46708557	          0.05045538	          0.05577471	          0.76032334	          0.05144328	          0.05262322	          0.06076766	          0.86172222	          0.74471262	          0.86196174	          0.58533991	          0.50271242	          0.37098273	          0.32800181	          0.47378343	          0.05194537	          0.58382254	          0.25266206	          0.45653191	          0.34804899	          0.75779060	          0.81782122	          0.75837274	          0.37048116	          0.37038533	          0.94555703	          0.99206371	          0.91786979	          0.39936192	          0.58319015	          0.58349773	          0.58403805	          0.14333941	          0.15667312	          0.05022228	          0.05195356	          0.08623094	          0.05809812	          0.99396051	          0.20372330	          0.09161737	          0.97804975	          0.99182838	          0.97919089	          0.07577523	          0.37049181	          0.89524577	          0.58422179	          0.39330370	          0.73116805	
          0.36187591	        -10.02006665	        -12.88304413	         22.97823348	          2.94499688	          0.93741218	         -0.02808833	         55.93195879	         -5.03949089	         -9.23884577	        -59.01578558	         15.78335091	          2.49853346	          4.70816078	          5.25165758	        -16.65020597	          9.45692354	        -40.05041081	        -19.28990352	         -8.38124911	         -4.17001887	         -1.24664911	         11.42836781	        -26.98858480	        -69.99985793	        -42.52217651	        -12.53655046	          0.00069411	         49.99800403	          4.99000656	          9.83006615	        113.12398144	          0.26784954	          0.26890421	          0.27697927	          0.24696237	          0.28636186	          0.31360238	          0.86607250	          0.25616849	          0.10914045	          0.99813607	          0.96509400	          0.92582150	          0.33090812	          0.50255753	          0.46566893	          0.37041127	          0.88420140	          0.99594263	          0.95419950	          0.91376709	          0.27299311	          0.11568408	          0.99122765	          0.92051971	          0.19125726	          0.18811323	          0.18394599	          0.99333553	          0.87427891	          0.99432634	          0.35421296	          0.86938686	          0.84567297	          0.73626354	          0.61871683	          0.58157339	          0.63262194	          0.58450836	          0.60918170	          0.59982345	          0.59283813	          0.62069209	          0.59535243	          0.05043566	          0.05447428	          0.81652146	          0.05144830	          0.05235436	          0.05912104	          0.89499029	          0.80586901	          0.89519891	          0.54231593	          0.46576597	          0.34377719	          0.30412781	          0.60042968	          0.28003016	          0.68399851	          0.23409541	          0.42556890	          0.32340055	          0.81102802	          0.86163165	          0.81654328	          0.34324712	          0.34315927	          0.95862830	          0.99229009	          0.93525036	          0.37000889	          0.68324563	          0.68351121	          0.68400872	          0.13280966	          0.14517114	          0.05019851	          0.05324047	          0.10920798	          0.06045374	          0.99345209	          0.18908463	          0.08511198	          0.97615493	          0.99103815	          0.97774761	          0.07024136	          0.34326027	          0.92044613	          0.54127954	          0.36439259	          0.67742403	
          0.36663743	         -8.88443549	        -12.45649745	         24.02895227	          2.98273274	          0.94048290	         -0.02942534	         55.19691204	         -5.90582501	         -9.54050592	        -57.67246300	         16.76554956	          2.35219421	          5.45137069	          4.03320947	        -17.14949468	          9.63426079	        -40.71930770	        -20.83818261	         -4.46422073	         -0.71035166	         -2.58648971	         11.71440364	        -28.31817704	        -69.91147650	        -42.57397792	         -7.74181411	          0.19634640	         49.99487645	          4.95234209	         11.09064110	        110.66281693	          0.24816842	          0.24913678	          0.25661934	          0.22881879	          0.26532129	          0.29057398	          0.89831725	          0.39610193	          0.10112562	          0.99839673	          0.97347975	          0.94366455	          0.30661715	          0.46570676	          0.43144054	          0.34318285	          0.91208632	          0.99686626	          0.96523057	          0.93452996	          0.25293204	          0.10718386	          0.99333844	          0.93966447	          0.17719736	          0.17428414	          0.17042287	          0.99493813	          0.90454504	          0.99508935	          0.32821668	          0.89876620	          0.87816642	          0.68213329	          0.57326325	          0.53933068	          0.58624280	          0.68458571	          0.56442845	          0.55573545	          0.69066861	          0.71203434	          0.69265201	          0.05034463	          0.05295344	          0.83824061	          0.05125771	          0.05188861	          0.05721192	          0.92025558	          0.85249225	          0.92043107	          0.50245446	          0.43153470	          0.31860697	          0.28472634	          0.69661961	          0.45335616	          0.76006582	          0.21689318	          0.39865296	          0.30861119	          0.82847339	          0.89489368	          0.86070679	          0.31801514	          0.31793460	          0.96855584	          0.99278710	          0.94379781	          0.34281319	          0.75895301	          0.75920111	          0.75971546	          0.12305423	          0.13451493	          0.05018831	          0.06373746	          0.12375831	          0.06706034	          0.99249925	          0.17550292	          0.07908147	          0.97206218	          0.98983394	          0.97551868	          0.06520861	          0.31803570	          0.93955027	          0.50149365	          0.33760648	          0.62763035	
          0.37139896	         -7.71645216	        -11.94697676	         25.07480169	          3.02037568	          0.94370282	         -0.03069333	         54.18677348	         -6.72829995	         -9.78626006	        -56.06417551	         17.76840208	          2.41351315	          5.93441209	          2.82721372	        -17.53771580	          9.77222345	        -41.43115143	        -20.91626780	         -2.31406993	          1.05521682	         -3.99810350	         11.96563068	        -29.48772264	        -69.78180854	        -42.27860319	          0.45171715	          0.99141578	         49.95957869	          4.93918238	         11.42926714	        106.93120036	          0.22993355	          0.23082261	          0.23775625	          0.21200882	          0.24582720	          0.26923780	          0.92279323	          0.37979026	          0.09370105	          0.99858361	          0.97984413	          0.95720839	          0.28411154	          0.43157508	          0.39972896	          0.31795640	          0.93325254	          0.99755529	          0.97360371	          0.95029009	          0.23434604	          0.09930891	          0.99494058	          0.95419611	          0.16417120	          0.16147183	          0.15789403	          0.99615454	          0.92751531	          0.99545561	          0.30413013	          0.92091339	          0.90283390	          0.63198272	          0.53115012	          0.50018077	          0.54326684	          0.76054821	          0.52296415	          0.51488814	          0.76489094	          0.78136090	          0.76649410	          0.05030425	          0.05193173	          0.78661130	          0.05111419	          0.05155535	          0.05547624	          0.93944200	          0.88794753	          0.93958634	          0.46552310	          0.39981910	          0.29537216	          0.45680978	          0.76965602	          0.58497112	          0.81782161	          0.20095511	          0.37775546	          0.47466156	          0.86531098	          0.92015276	          0.89423628	          0.29463803	          0.29456418	          0.97609715	          0.99345339	          0.89506486	          0.31761629	          0.77898204	          0.76196244	          0.72374065	          0.11401636	          0.12464251	          0.05021076	          0.23783769	          0.12832341	          0.08151310	          0.99076897	          0.16290045	          0.07348958	          0.96044237	          0.98810225	          0.97234832	          0.06148010	          0.29467571	          0.95398670	          0.46463218	          0.31278929	          0.58149677	
